<?xml version="1.0" encoding="UTF-8" standalone="no"?><!DOCTYPE svg PUBLIC "-//W3C//DTD SVG 20010904//EN"
 "http://www.w3.org/Graphics/SVG/1.1/DTD/svg11.dtd">
<svg version="1.1" baseProfile="full" xmlns="http://www.w3.org/2000/svg"
 width="1024pt" height="1024pt" viewBox="0 0 1024 1024" preserveAspectRatio="xMidYMid meet">
<g id="svg" fill="black" stroke="none" stroke-linecap="round" transform="scale(0.1,0.1)">
<path d="M0 6490l44 0 c37 0 45 -4 50 -22 3 -13 6 -33 6 -45 0 -20 7 -22 95 -28 l95 -7 0 -44 
0 -44 55 0 55 0 0 -50 0 -50 100 0 100 0 0 -50 0 -50 44 0 44 0 7 -99 7 -100 47 -3 
46 -3 3 -47 3 -48 50 0 49 0 0 -99 0 -99 44 -6 45 -7 3 -47 3 -47 47 -3 
48 -3 0 -50 0 -49 50 0 50 0 1 -42 c1 -24 2 -90 3 -148 2 -58 3 -126 4 -152 
l2 -47 44 -6 45 -7 3 -47 3 -46 48 -3 47 -3 0 -50 0 -49 49 0 c46 0 49 -1 55 -31 
3 -17 6 -60 6 -94 l0 -63 44 -6 44 -7 7 -94 7 -93 49 -7 49 -7 0 -43 c0 -34 4 -44 20 -49 
11 -3 31 -6 45 -6 23 0 25 -3 25 -50 l0 -50 50 0 50 0 0 -50 0 -50 49 0 
48 0 7 -94 6 -95 48 -3 47 -3 3 -46 3 -47 95 -7 94 -7 0 -49 0 -49 49 0 
50 0 3 -47 3 -48 47 -3 47 -3 3 -47 3 -47 47 -3 47 -3 7 -50 7 -49 42 0 
c30 0 45 -5 49 -16 3 -9 6 -29 6 -45 0 -28 2 -29 45 -29 l44 0 7 -49 6 -49 93 -7 
93 -7 5 -44 4 -43 49 -3 49 -3 3 -46 3 -47 93 -7 94 -7 6 -43 7 -43 94 -7 
95 -7 0 -49 0 -50 53 3 52 3 3 -46 3 -47 93 -7 94 -7 4 -43 5 -42 95 -8 
96 -7 6 -44 6 -44 118 0 c66 0 153 -3 194 -6 l76 -7 4 -42 5 -42 145 -6 
145 -7 6 -45 7 -45 118 0 c66 0 153 -3 194 -6 l76 -7 4 -42 5 -42 287 -7 
c157 -3 588 -6 956 -6 369 0 891 3 1160 6 l490 7 0 42 0 42 110 6 c61 4 151 7 200 7 
l90 0 0 43 0 42 199 13 199 12 7 39 6 38 65 7 c35 3 100 6 144 6 l80 0 0 44 
0 44 100 7 100 7 0 43 0 43 100 7 100 7 0 43 0 42 77 7 c42 3 109 6 150 6 
l73 0 0 43 0 44 225 6 225 6 0 -1449 0 -1450 -5120 0 -5120 0 0 5120 0 1370 
z" fill="rgb(225, 254, 255)"/>
<path d="M0 6490l0 110 68 0 c38 0 103 -3 144 -6 l76 -7 6 -43 6 -44 50 0 50 0 0 -49 
0 -49 94 -7 94 -7 5 -44 5 -44 51 0 51 0 0 -49 0 -49 94 -7 94 -7 6 -44 
6 -44 43 0 44 0 6 -50 6 -50 51 0 50 0 0 -49 0 -48 80 -7 c44 -3 132 -6 195 -6 
l115 0 0 -50 0 -50 50 0 50 0 0 -44 0 -45 53 -3 52 -3 -3 -45 c-3 -37 1 -50 19 -65 
l23 -21 -34 -31 0 -365 0 -365 13 -19 11 -15 c9 -12 64 -56 154 -122 59 -43 134 -97 220 -157 
4 -2 7 -5 11 -7 32 -23 61 -43 87 -61 90 -63 151 -106 194 -134 67 -43 90 -54 109 -55 
4 -1 9 -1 14 0 12 0 26 4 50 16 l19 -31 c14 -21 15 -33 6 -67 -8 -31 -8 -45 1 -54 
6 -6 11 -30 11 -54 l0 -43 45 0 45 0 0 -55 0 -55 100 0 100 0 0 -50 0 -50 49 0 
48 0 5 -44 5 -44 95 -7 96 -7 5 -43 6 -43 96 -7 95 -7 0 -49 0 -49 100 0 
100 0 0 -44 0 -44 100 -7 100 -7 0 -49 0 -49 49 0 48 0 5 -44 5 -44 95 -7 
96 -7 4 -43 5 -43 96 -7 c86 -7 96 -9 101 -29 3 -11 6 -30 6 -42 0 -20 7 -21 144 -27 
l143 -7 6 -43 6 -44 141 -6 c77 -4 210 -7 295 -7 l155 0 0 -44 0 -44 405 -6 
c223 -3 700 -4 1060 -1 360 3 673 5 695 5 l40 0 0 49 0 50 275 -5 c151 -2 353 -1 449 2 
l174 7 6 42 5 43 96 7 95 7 0 44 0 44 53 3 c28 1 76 0 105 -1 l52 -4 0 50 
0 49 122 6 c66 4 154 7 195 7 l73 0 0 50 0 50 100 0 100 0 0 50 0 50 99 0 
98 0 5 45 6 45 46 0 46 0 0 48 0 49 149 6 149 7 6 45 7 45 111 0 110 0 -4 53 
-3 52 63 3 62 3 0 -901 0 -1 -225 -6 -225 -6 0 -44 0 -43 -73 0 c-41 0 -108 -3 -150 -6 
l-77 -7 0 -42 0 -43 -100 -7 -100 -7 0 -43 0 -43 -100 -7 -100 -7 0 -44 
0 -44 -80 0 c-44 0 -109 -3 -144 -6 l-65 -7 -6 -38 -7 -39 -199 -12 -199 -13 0 -42 
0 -43 -90 0 c-49 0 -139 -3 -200 -7 l-110 -6 0 -42 0 -42 -490 -7 c-269 -3 -791 -6 -1160 -6 
-368 0 -799 3 -956 6 l-287 7 -5 42 -4 42 -76 7 c-41 3 -128 6 -194 6 l-118 0 -7 45 
-6 45 -145 7 -145 6 -5 42 -4 42 -76 7 c-41 3 -128 6 -194 6 l-118 0 -6 44 
-6 44 -96 7 -95 8 -5 42 -4 43 -94 7 -93 7 -3 47 -3 46 -52 -3 -53 -3 0 50 
0 49 -95 7 -94 7 -7 43 -6 43 -94 7 -93 7 -3 47 -3 46 -49 3 -49 3 -4 43 
-5 44 -93 7 -93 7 -6 49 -7 49 -44 0 c-43 0 -45 1 -45 29 0 16 -3 36 -6 45 
-4 11 -19 16 -49 16 l-42 0 -7 49 -7 50 -47 3 -47 3 -3 47 -3 47 -47 3 -47 3 -3 48 
-3 47 -50 0 -49 0 0 49 0 49 -94 7 -95 7 -3 47 -3 46 -47 3 -48 3 -6 95 
-7 94 -48 0 -49 0 0 50 0 50 -50 0 -50 0 0 50 c0 47 -2 50 -25 50 -14 0 -34 3 -45 6 
-16 5 -20 15 -20 49 l0 43 -49 7 -49 7 -7 93 -7 94 -44 7 -44 6 0 63 c0 34 -3 77 -6 94 
-6 30 -9 31 -55 31 l-49 0 0 49 0 50 -47 3 -48 3 -3 46 -3 47 -45 7 -44 6 -2 47 
c-1 26 -2 94 -4 152 -1 58 -2 124 -3 148 l-1 42 -50 0 -50 0 0 49 0 50 -48 3 
-47 3 -3 47 -3 47 -45 7 -44 6 0 99 0 99 -49 0 -50 0 -3 48 -3 47 -46 3 
-47 3 -7 100 -7 99 -44 0 -44 0 0 50 0 50 -100 0 -100 0 0 50 0 50 -55 0 
-55 0 0 44 0 44 -95 7 c-88 6 -95 8 -95 28 0 12 -3 32 -6 45 -5 18 -13 22 -50 22 
l-44 0 z" fill="rgb(228, 247, 253)"/>
<path d="M2563 4249c27 15 69 42 141 90 23 16 49 33 78 53 35 24 74 52 119 83 23 16 46 32 68 47 
l10 -6 c6 -4 11 -31 11 -61 l0 -53 99 -7 99 -7 4 -43 5 -43 96 -7 95 -7 7 -43 
6 -43 94 -7 95 -7 0 -49 0 -49 50 0 50 0 0 -45 0 -45 100 0 100 0 0 -49 
0 -48 77 -7 c42 -3 108 -6 148 -6 l72 0 6 -45 7 -45 95 0 95 0 0 -49 0 -48 92 -7 
c50 -3 117 -6 149 -6 l58 0 3 -42 3 -43 143 -7 c78 -5 234 -6 346 -4 l204 5 6 -43 
7 -43 64 -7 c36 -3 213 -6 394 -6 l330 0 3 43 3 42 96 3 96 3 6 -46 c4 -25 9 -45 12 -45 
3 0 133 -2 290 -5 157 -3 377 -2 489 1 l204 6 4 43 5 42 67 6 c36 4 169 7 295 7 
l228 0 6 44 6 44 95 7 95 7 3 42 3 41 165 5 c91 3 180 6 198 8 32 2 32 3 32 52 
l0 50 49 0 48 0 6 44 6 43 66 7 c36 3 100 6 144 6 l78 0 5 44 5 44 96 7 
95 7 7 44 6 44 44 0 c24 0 47 5 50 10 3 6 26 10 49 10 l44 0 7 46 6 46 95 -7 
94 -7 0 50 0 50 100 7 100 7 0 43 0 42 159 6 159 7 7 94 7 93 59 7 59 6 
0 -899 -62 -3 -63 -3 3 -52 4 -53 -110 0 -111 0 -7 -45 -6 -45 -149 -7 -149 -6 0 -49 
0 -48 -46 0 -46 0 -6 -45 -5 -45 -98 0 -99 0 0 -50 0 -50 -100 0 -100 0 0 -50 
0 -50 -73 0 c-41 0 -129 -3 -195 -7 l-122 -6 0 -49 0 -50 -52 4 c-29 1 -77 2 -105 1 
l-53 -3 0 -44 0 -44 -95 -7 -96 -7 -5 -43 -6 -42 -174 -7 c-96 -3 -298 -4 -449 -2 
l-275 5 0 -50 0 -49 -40 0 c-22 0 -335 -2 -695 -5 -360 -3 -837 -2 -1060 1 
l-405 6 0 44 0 44 -155 0 c-85 0 -218 3 -295 7 l-141 6 -6 44 -6 43 -143 7 
c-137 6 -144 7 -144 27 0 12 -3 31 -6 42 -5 20 -15 22 -101 29 l-96 7 -5 43 
-4 43 -96 7 -95 7 -5 44 -5 44 -48 0 -49 0 0 49 0 49 -100 7 -100 7 0 44 
0 44 -100 0 -100 0 0 49 0 49 -95 7 -96 7 -6 43 -5 43 -96 7 -95 7 -5 44 
-5 44 -48 0 -49 0 0 50 0 50 -100 0 -100 0 0 55 0 55 -45 0 -45 0 0 43 c0 24 -5 48 -11 54 
-9 9 -9 23 -1 54 9 34 8 46 -6 67 l-19 31 z" fill="rgb(226, 242, 252)"/>
<path d="M2969 4522c16 11 32 22 47 33 139 98 247 175 259 187 l28 26 -1 47 5 385 
-3 385 c1 26 2 50 3 68 l4 88 -34 34 c-34 34 -38 35 -111 35 -30 0 -135 2 -261 4 
l51 4 c50 2 51 2 46 33 l-5 31 47 -7 46 -7 0 56 0 56 -34 0 c-19 0 -41 3 -50 6 
-12 4 -16 20 -16 56 l0 49 53 -3 52 -3 3 51 3 51 44 7 45 6 0 45 c0 45 0 45 -34 45 
-19 0 -41 3 -50 6 -11 4 -16 19 -16 50 l0 43 53 3 52 3 3 46 3 47 44 5 45 5 0 196 
0 196 -50 0 -50 0 0 123 c0 68 3 158 6 200 l7 75 43 7 44 6 0 50 0 49 50 0 
50 0 0 101 0 100 55 -6 55 -7 0 74 c0 41 -3 109 -6 151 l-7 77 -48 0 -49 0 0 109 
0 110 47 3 c46 3 47 4 58 43 l10 40 93 0 c52 0 96 3 99 8 2 4 4 50 4 102 
l-1 95 45 0 45 0 1 43 c1 23 0 54 -1 70 -1 15 1 41 5 58 7 29 8 30 49 24 
39 -6 44 -5 49 17 4 12 7 35 7 50 0 26 1 26 95 33 l95 7 0 49 0 49 50 0 
50 0 0 50 0 50 99 0 100 0 3 42 3 43 48 3 47 3 0 50 0 49 49 0 c28 0 52 4 55 8 
2 4 2 27 -1 50 l-6 42 -43 0 -44 0 0 50 0 50 45 0 45 0 0 50 0 50 -99 0 
-98 0 1 -140 c0 -76 -2 -142 -6 -145 -3 -3 -94 -8 -202 -10 l-196 -4 0 49 
0 48 99 7 100 7 3 42 3 41 47 3 48 3 0 55 0 54 50 0 50 0 0 45 0 45 50 0 
50 0 0 49 0 48 100 8 100 7 1 41 c0 23 0 68 -1 100 l-1 57 50 0 51 0 0 45 
0 45 50 0 50 0 0 55 0 55 49 0 c46 0 49 1 55 31 3 17 6 42 6 54 0 20 6 23 69 29 
38 3 103 3 145 -1 l76 -6 0 67 0 66 4950 0 0 -3670 0 -1870 -59 -6 -59 -7 -7 -93 
-7 -94 -159 -7 -159 -6 0 -42 0 -43 -100 -7 -100 -7 0 -50 0 -50 -94 7 -95 7 -6 -46 
-7 -46 -44 0 c-23 0 -46 -4 -49 -10 -3 -5 -26 -10 -50 -10 l-44 0 -6 -44 
-7 -44 -95 -7 -96 -7 -5 -44 -5 -44 -78 0 c-44 0 -108 -3 -144 -6 l-66 -7 -6 -43 
-6 -44 -48 0 -49 0 0 -50 c0 -49 0 -50 -32 -52 -18 -2 -107 -5 -198 -8 l-165 -5 -3 -41 
-3 -42 -95 -7 -95 -7 -6 -44 -6 -44 -228 0 c-126 0 -259 -3 -295 -7 l-67 -6 -5 -42 
-4 -43 -204 -6 c-112 -3 -332 -4 -489 -1 -157 3 -287 5 -290 5 -3 0 -8 20 -12 45 
l-6 46 -96 -3 -96 -3 -3 -42 -3 -43 -330 0 c-181 0 -358 3 -394 6 l-64 7 -7 43 
-6 43 -204 -5 c-112 -2 -268 -1 -346 4 l-143 7 -3 43 -3 42 -58 0 c-32 0 -99 3 -149 6 
l-92 7 0 48 0 49 -95 0 -95 0 -7 45 -6 45 -72 0 c-40 0 -106 3 -148 6 l-77 7 0 48 
0 49 -100 0 -100 0 0 45 0 45 -50 0 -50 0 0 49 0 49 -95 7 -94 7 -6 43 -7 43 -95 7 
-96 7 -5 43 -4 43 -99 7 -99 7 0 53 c0 30 -5 57 -11 61 l-10 6 z" fill="rgb(227, 239, 255)"/>
<path d="M2390 4288l9 44 c5 31 3 49 -7 66 -12 18 -12 27 -2 52 7 17 16 30 21 30 l12 4 
c39 -27 64 -44 68 -47 l18 -11 -11 -7 c-6 -4 -7 -16 -2 -30 4 -13 6 -54 5 -91 
l-2 -65 c-19 1 -42 12 -109 55 z" fill="rgb(219, 90, 144)"/>
<path d="M2499 4233l2 65 c1 37 -1 78 -5 91 -5 14 -4 26 2 30 l11 7 162 114 -4 -8 
c-4 -5 0 -18 8 -29 10 -14 11 -30 5 -58 -6 -28 -4 -46 8 -72 l16 -34 c-72 -48 -114 -75 -141 -90 
-24 -12 -38 -16 -50 -16 -5 -1 -10 -1 -14 0 z" fill="rgb(192, 79, 157)"/>
<path d="M2196 4422l14 35 c8 22 8 37 1 51 -6 11 -7 38 -2 68 l9 51 c81 -57 155 -108 205 -143 
l-12 -4 c-5 0 -14 -13 -21 -30 -10 -25 -10 -34 2 -52 10 -17 12 -35 7 -66 
l-9 -44 c-43 28 -104 71 -194 134 z" fill="rgb(230, 95, 135)"/>
<path d="M2704 4339l-16 34 c-12 26 -14 44 -8 72 6 28 5 44 -5 58 -8 11 -12 24 -8 29 
l4 8 103 73 c1 1 2 1 3 2 l-4 -11 c-2 -6 0 -15 6 -19 6 -3 11 -18 11 -33 
0 -15 -7 -38 -16 -50 -14 -20 -14 -28 -3 -55 8 -18 13 -36 11 -42 l0 -13 
c-29 -20 -55 -37 -78 -53 zm73 276 c0 0 0 0 0 0 l0 0 z" fill="rgb(160, 70, 174)"/>
<path d="M2782 4392l0 13 c2 6 -3 24 -11 42 -11 27 -11 35 3 55 9 12 16 35 16 50 0 15 -5 30 -11 33 
-6 4 -8 13 -6 19 l4 11 0 0 c71 49 139 98 194 137 l-3 -8 c-2 -5 6 -19 16 -32 
17 -20 18 -28 9 -62 -8 -32 -7 -44 6 -67 l17 -28 c-15 -11 -31 -22 -47 -33 
-22 -15 -45 -31 -68 -47 -45 -31 -84 -59 -119 -83 z" fill="rgb(130, 60, 179)"/>
<path d="M2098 4490l9 43 c4 26 0 49 -12 70 -15 29 -15 36 -3 67 l14 35 71 -49 c13 -10 27 -20 41 -29 
l-9 -51 c-5 -30 -4 -57 2 -68 7 -14 7 -29 -1 -51 l-14 -35 c-26 18 -55 38 -87 61 
-4 2 -7 5 -11 7 z" fill="rgb(241, 108, 122)"/>
<path d="M2423 4484c-50 35 -124 86 -205 143 -14 9 -28 19 -41 29 l-71 49 -182 127 
-44 31 0 283 c0 271 1 284 20 295 l19 10 57 10 c21 3 40 9 59 17 16 7 31 16 45 26 
27 19 59 50 72 68 13 19 20 40 26 74 l9 52 c2 30 8 50 14 47 5 -4 9 -8 9 -11 
0 -2 2 -4 5 -4 l8 4 c8 -7 17 -15 27 -23 28 -23 64 -50 80 -61 20 -13 38 -18 90 -20 
12 0 27 0 45 0 l105 0 13 -2 13 -3 3 -163 c1 -90 5 -162 10 -160 4 1 95 66 205 146 
5 4 11 8 16 12 118 85 224 161 237 168 17 9 28 10 43 2 19 -10 20 -21 20 -385 
l0 -374 -45 -35 c-13 -10 -56 -42 -114 -84 -55 -39 -123 -88 -194 -137 0 0 0 0 0 0 
-1 -1 -2 -1 -3 -2 l-103 -73 -162 -114 -18 11 c-4 3 -29 20 -68 47 z" fill="rgb(227, 239, 255)"/>
<path d="M3988 4458c-61 20 -102 42 -153 82 -38 30 -89 80 -112 111 -23 31 -54 90 -69 130 
-20 53 -28 98 -31 164 -3 74 0 104 20 172 16 52 42 108 73 155 36 53 67 85 116 120 
37 26 100 60 140 74 51 19 96 28 160 30 65 3 106 -1 156 -15 38 -11 100 -40 141 -66 
52 -33 90 -68 128 -116 31 -41 64 -98 80 -141 21 -57 28 -95 31 -173 3 -79 -1 -115 -16 -170 
-12 -38 -39 -101 -61 -138 -30 -50 -61 -84 -116 -127 -48 -38 -100 -69 -146 -85 
-52 -20 -96 -28 -165 -31 -83 -3 -104 -1 -176 24 z" fill="rgb(42, 0, 145)"/>
<path d="M7305 4503c-16 10 -20 28 -23 105 l-4 92 -41 0 c-24 0 -48 7 -59 17 -13 12 -18 31 -18 75 
0 45 5 63 20 78 13 13 33 20 60 20 l40 0 1 178 c0 111 5 197 14 232 7 30 27 74 43 96 
20 27 51 52 87 69 48 24 72 29 156 32 89 3 102 1 125 -18 24 -20 25 -27 22 -88 
-3 -61 -6 -67 -32 -79 -17 -9 -42 -11 -67 -7 -22 4 -54 2 -74 -5 -22 -7 -41 -23 -50 -40 
-12 -22 -15 -68 -15 -200 l0 -170 82 0 c62 0 86 -4 100 -17 14 -12 18 -31 18 -76 
0 -42 -5 -66 -17 -79 -13 -15 -31 -18 -100 -18 l-83 0 0 -89 c0 -82 -2 -91 -22 -105 
-14 -10 -44 -16 -83 -16 -34 0 -70 6 -80 13 z" fill="rgb(42, 0, 145)"/>
<path d="M1878 4647l17 26 c13 21 15 38 10 77 -5 36 -3 55 6 66 l13 16 182 -127 -14 -35 
c-12 -31 -12 -38 3 -67 12 -21 16 -44 12 -70 l-9 -43 c-86 60 -161 114 -220 157 
z" fill="rgb(247, 119, 109)"/>
<path d="M3016 4555l-17 28 c-13 23 -14 35 -6 67 9 34 8 42 -9 62 -10 13 -18 27 -16 32 
l3 8 c58 42 101 74 114 84 l45 35 0 374 c0 364 -1 375 -20 385 -15 8 -26 7 -43 -2 
-13 -7 -119 -83 -237 -168 -5 -4 -11 -8 -16 -12 l-18 27 c-15 22 -16 34 -7 76 
6 28 11 95 11 149 0 100 0 100 -25 100 -11 0 -27 2 -40 5 l40 5 40 6 c31 -1 61 -1 90 -2 
126 -2 231 -4 261 -4 73 0 77 -1 111 -35 l34 -34 -4 -88 c-1 -18 -2 -42 -3 -68 
-2 -45 -4 -98 -5 -140 -1 -66 -1 -245 1 -398 l2 -232 1 -47 -28 -26 c-12 -12 -120 -89 -259 -187 
z" fill="rgb(90, 41, 178)"/>
<path d="M1713 4784l45 21 43 19 -8 81 c-4 44 -7 191 -7 328 1 170 6 252 13 261 8 9 10 32 5 65 
l-6 47 c22 11 49 22 79 33 7 3 13 5 20 8 l1 -36 c1 -20 -3 -51 -9 -68 -9 -28 -7 -37 10 -62 
l20 -30 -19 -10 c-19 -11 -20 -24 -20 -295 l0 -283 44 -31 -13 -16 c-9 -11 -11 -30 -6 -66 
5 -39 3 -56 -10 -77 l-17 -26 c-90 66 -145 110 -154 122 l-11 15 z" fill="rgb(250, 134, 94)"/>
<path d="M4035 4675c-45 17 -77 38 -105 68 -23 24 -52 70 -65 102 -17 39 -25 77 -25 115 
0 31 7 80 15 108 11 37 31 68 70 109 39 41 71 65 112 81 33 13 78 22 108 22 
32 0 73 -9 110 -25 32 -13 78 -43 102 -67 27 -27 53 -66 68 -105 17 -42 25 -81 25 -122 
0 -46 -7 -76 -29 -124 -18 -38 -47 -79 -75 -105 -28 -26 -67 -49 -105 -62 
-33 -11 -79 -20 -101 -20 -22 0 -69 11 -105 25 z" fill="rgb(227, 239, 255)"/>
<path d="M4977 4724c-53 25 -87 49 -121 87 -34 38 -54 73 -72 125 -14 44 -24 96 -24 131 
0 32 6 84 14 114 8 30 30 78 49 106 19 28 57 69 85 92 39 30 69 44 127 58 
71 16 80 16 137 1 38 -10 74 -27 96 -47 19 -17 37 -31 40 -31 2 0 1 28 -2 62 
-4 34 -16 79 -27 100 -11 21 -36 49 -57 63 -20 13 -55 26 -77 27 -22 2 -50 2 -62 1 
-13 -2 -42 -23 -65 -48 -42 -44 -43 -45 -108 -45 -43 0 -73 5 -88 16 -14 10 -22 25 -22 45 
0 16 9 48 20 70 12 22 45 60 74 84 34 28 75 50 111 61 41 11 84 15 149 13 
72 -3 101 -9 141 -29 28 -14 76 -50 107 -81 49 -48 62 -69 84 -135 25 -74 27 -93 31 -299 
4 -210 3 -224 -20 -300 -17 -58 -36 -95 -69 -136 -31 -39 -66 -67 -116 -94 
-66 -37 -77 -39 -167 -42 -90 -3 -99 -1 -168 31 z" fill="rgb(42, 0, 145)"/>
<path d="M6663 4714c-51 17 -78 34 -103 62 -18 21 -40 59 -47 84 -9 28 -12 64 -8 96 
4 32 18 70 35 98 22 35 45 54 90 76 33 17 96 40 140 51 58 15 86 28 100 46 
11 14 20 30 20 35 0 5 -12 20 -26 35 -22 22 -32 25 -79 21 -43 -4 -61 -11 -96 -41 
-38 -33 -49 -37 -97 -37 -46 0 -58 4 -84 30 -23 24 -29 37 -25 58 3 14 18 45 34 68 
21 29 50 51 98 75 65 32 76 34 171 34 96 0 105 -2 170 -35 62 -31 73 -41 103 -97 
28 -50 34 -72 34 -120 0 -40 -7 -71 -22 -102 -15 -28 -40 -55 -67 -73 -24 -15 -97 -45 -161 -65 
-114 -37 -118 -39 -128 -71 -8 -29 -7 -36 10 -48 10 -8 40 -14 66 -14 39 0 56 7 100 40 
43 32 62 40 97 40 35 0 49 -6 73 -29 18 -19 29 -40 29 -58 0 -15 -9 -43 -20 -61 
-11 -18 -40 -46 -65 -62 -25 -17 -72 -37 -105 -45 -33 -8 -84 -15 -114 -15 
-30 0 -83 10 -123 24 z" fill="rgb(42, 0, 145)"/>
<path d="M7985 5165l208 -12 207 3 c19 -1 34 -2 41 -3 41 -6 57 -14 75 -38 13 -16 25 -48 28 -70 
3 -24 -2 -66 -12 -104 -14 -49 -30 -77 -70 -122 -36 -39 -73 -68 -117 -90 
-57 -28 -78 -32 -160 -35 -85 -4 -103 -1 -167 24 -54 20 -85 41 -128 83 
-43 42 -65 74 -85 125 -23 57 -27 83 -27 164 0 64 5 111 17 145 9 28 35 76 57 108 
27 41 59 71 103 99 55 35 77 43 159 54 82 12 106 12 161 0 35 -8 90 -28 121 -45 
34 -20 68 -50 89 -79 19 -26 36 -56 40 -68 3 -13 -2 -30 -13 -44 -15 -19 -32 -24 -80 -28 
-58 -4 -63 -2 -126 39 -58 38 -71 42 -124 42 -46 0 -70 -6 -104 -26 -32 -19 -52 -40 -69 -74 
l-24 -48 z" fill="rgb(42, 0, 145)"/>
<path d="M5662 4746l-6 224 3 225 c3 36 9 55 19 82 12 35 39 84 60 110 24 31 60 59 101 80 
56 29 72 33 143 33 74 0 85 -3 137 -34 l55 -34 16 26 c15 24 24 27 77 30 
52 3 65 0 82 -17 21 -21 21 -30 21 -377 0 -226 -4 -362 -10 -375 -9 -16 -22 -19 -89 -19 
-63 0 -81 3 -92 18 -11 13 -15 75 -19 257 l-5 240 -31 35 c-17 20 -49 41 -73 49 
-37 12 -47 11 -88 -4 -33 -13 -52 -28 -68 -56 -12 -20 -24 -59 -29 -94 -1 -2 -1 -4 -1 -7 
-4 -35 -11 -70 -16 -79 -4 -9 -4 -20 1 -25 5 -5 10 -56 14 -119 0 -8 1 -17 1 -25 
5 -103 3 -141 -7 -160 -13 -23 -20 -25 -95 -28 -77 -3 -83 -1 -95 20 -3 4 -5 12 -6 24 
z" fill="rgb(42, 0, 145)"/>
<path d="M5662 4746c-5 35 -7 105 -7 234 0 115 1 175 4 215 l-3 -225 6 -224 z" fill="rgb(176, 174, 225)"/>
<path d="M1734 5564l1 2 c13 12 34 26 63 40 l6 -47 c5 -33 3 -56 -5 -65 -7 -9 -12 -91 -13 -261 
0 -137 3 -284 7 -328 l8 -81 -43 -19 -45 -21 -13 19 0 365 0 365 34 31 z" fill="rgb(255, 142, 81)"/>
<path d="M3302 4815l-2 232 c-2 153 -2 332 -1 398 1 42 3 95 5 140 l3 -385 -5 -385 
z" fill="rgb(83, 27, 179)"/>
<path d="M8071 4905c-22 14 -49 41 -61 60 l-22 35 181 0 182 0 -17 -32 c-9 -17 -37 -44 -62 -60 
-36 -22 -57 -28 -104 -28 -45 0 -67 6 -97 25 z" fill="rgb(227, 239, 255)"/>
<path d="M5047 4924c-20 14 -45 43 -56 65 -12 22 -21 57 -21 78 0 21 9 56 19 79 10 23 33 51 51 64 
19 13 53 25 79 28 29 2 61 -2 84 -11 20 -9 50 -34 67 -57 24 -32 30 -51 30 -91 
0 -27 -7 -65 -14 -84 -8 -19 -33 -48 -56 -65 -33 -24 -51 -30 -94 -30 -40 0 -62 6 -89 24 
z" fill="rgb(227, 239, 255)"/>
<path d="M5866 5145l2 -115 -4 -115 c-4 63 -9 114 -14 119 -5 5 -5 16 -1 25 5 9 12 44 16 79 
0 3 0 5 1 7 z" fill="rgb(121, 96, 198)"/>
<path d="M2207 4977l11 48 c8 37 7 57 -4 88 -8 21 -11 44 -7 51 l7 12 48 3 c42 3 51 -1 78 -27 
24 -25 30 -39 30 -75 0 -39 -5 -49 -36 -77 -32 -28 -42 -31 -82 -27 l-45 4 
z" fill="rgb(227, 96, 139)"/>
<path d="M2680 4998c-24 25 -30 39 -30 74 0 26 8 52 19 67 11 14 34 26 58 31 27 4 52 3 71 -6 
17 -7 38 -27 47 -44 11 -21 15 -44 11 -65 -4 -17 -17 -42 -31 -55 -14 -14 -41 -24 -69 -27 
-40 -5 -48 -2 -76 25 z" fill="rgb(119, 54, 176)"/>
<path d="M2207 4977l-20 19 c-10 10 -24 30 -29 44 -5 14 -7 39 -4 56 4 17 18 42 33 55 
l27 25 -7 -12 c-4 -7 -1 -30 7 -51 11 -31 12 -51 4 -88 l-11 -48 z" fill="rgb(244, 110, 117)"/>
<path d="M7985 5165l0 0 203 -2 c80 -1 162 -4 212 -7 l-207 -3 -208 12 z" fill="rgb(118, 85, 203)"/>
<path d="M2596 5625l8 31 c6 22 2 44 -16 85 -19 44 -27 54 -46 52 l-22 -2 -6 10 c-3 5 34 9 90 9 
l99 7 22 -9 c3 -1 6 -2 10 -3 13 -3 29 -5 40 -5 25 0 25 0 25 -100 0 -54 -5 -121 -11 -149 
-9 -42 -8 -54 7 -76 l18 -27 c-110 -80 -201 -145 -205 -146 -5 -2 -9 70 -10 160 
l-3 163 z" fill="rgb(119, 54, 176)"/>
<path d="M1919 5451l-20 30 c-17 25 -19 34 -10 62 6 17 10 48 9 68 l-1 36 c50 20 91 39 95 45 
4 7 8 73 8 146 0 104 3 138 16 157 9 13 31 29 50 35 19 7 39 10 46 9 l11 -3 
-7 -7 c-4 -4 -12 -40 -18 -81 -6 -40 -12 -127 -13 -193 -1 -66 -3 -126 -4 -133 
0 -8 -19 -21 -42 -30 -36 -14 -40 -18 -34 -41 4 -14 12 -37 19 -51 l11 -22 
c-19 -8 -38 -14 -59 -17 l-57 -10 z" fill="rgb(244, 110, 117)"/>
<path d="M2035 5478l-11 22 c-7 14 -15 37 -19 51 -6 23 -2 27 34 41 23 9 42 22 42 30 
1 7 3 67 4 133 1 66 7 153 13 193 6 41 14 77 18 81 l7 7 51 -36 c12 -8 30 -21 50 -36 
l-19 -29 c-15 -23 -19 -46 -18 -102 l1 -73 -6 -77 c-2 -14 -3 -26 -4 -37 
-6 -34 -13 -55 -26 -74 -13 -18 -45 -49 -72 -68 -14 -10 -29 -19 -45 -26 
z" fill="rgb(230, 95, 135)"/>
<path d="M0 6600l0 3640 5120 0 170 0 0 -66 0 -67 -76 6 c-42 4 -107 4 -145 1 -63 -6 -69 -9 -69 -29 
0 -12 -3 -37 -6 -54 -6 -30 -9 -31 -55 -31 l-49 0 0 -55 0 -55 -50 0 -50 0 0 -45 
0 -45 -51 0 -50 0 1 -57 c1 -32 1 -77 1 -100 l-1 -41 -100 -7 -100 -8 0 -48 
0 -49 -50 0 -50 0 0 -45 0 -45 -50 0 -50 0 0 -54 0 -55 -48 -3 -47 -3 -3 -41 
-3 -42 -100 -7 -99 -7 0 -48 0 -49 196 4 c108 2 199 7 202 10 4 3 6 69 6 145 
l-1 140 98 0 99 0 0 -50 0 -50 -45 0 -45 0 0 -50 0 -50 44 0 43 0 6 -42 
c3 -23 3 -46 1 -50 -3 -4 -27 -8 -55 -8 l-49 0 0 -49 0 -50 -47 -3 -48 -3 -3 -43 
-3 -42 -100 0 -99 0 0 -50 0 -50 -50 0 -50 0 0 -49 0 -49 -95 -7 c-94 -7 -95 -7 -95 -33 
0 -15 -3 -38 -7 -50 -5 -22 -10 -23 -49 -17 -41 6 -42 5 -49 -24 -4 -17 -6 -43 -5 -58 
1 -16 2 -47 1 -70 l-1 -43 -45 0 -45 0 1 -95 c0 -52 -2 -98 -4 -102 -3 -5 -47 -8 -99 -8 
l-93 0 -10 -40 c-11 -39 -12 -40 -58 -43 l-47 -3 0 -110 0 -109 49 0 48 0 7 -77 
c3 -42 6 -110 6 -151 l0 -74 -55 7 -55 6 0 -100 0 -101 -50 0 -50 0 0 -49 
0 -50 -44 -6 -43 -7 -7 -75 c-3 -42 -6 -132 -6 -200 l0 -123 50 0 50 0 0 -196 
0 -196 -45 -5 -44 -5 -3 -47 -3 -46 -52 -3 -53 -3 0 -43 c0 -31 5 -46 16 -50 
9 -3 31 -6 50 -6 34 0 34 0 34 -45 l0 -45 -45 -6 -44 -7 -3 -51 -3 -51 -52 3 
-53 3 0 -49 c0 -36 4 -52 16 -56 9 -3 31 -6 50 -6 l34 0 0 -56 0 -56 -46 7 
-47 7 5 -31 c5 -31 4 -31 -46 -33 l-51 -4 c-29 1 -59 1 -90 2 -23 0 -46 1 -69 1 
l-45 1 -299 7 -88 70 c-29 22 -62 48 -90 69 -20 15 -38 28 -50 36 l-51 36 
-11 3 c-7 1 -27 -2 -46 -9 -19 -6 -41 -22 -50 -35 -13 -19 -16 -53 -16 -157 
0 -73 -4 -139 -8 -146 -4 -6 -45 -25 -95 -45 -7 -3 -13 -5 -20 -8 -30 -11 -57 -22 -79 -33 
-29 -14 -50 -28 -63 -40 l-1 -2 -23 21 c-18 15 -22 28 -19 65 l3 45 -52 3 
-53 3 0 45 0 44 -50 0 -50 0 0 50 0 50 -115 0 c-63 0 -151 3 -195 6 l-80 7 0 48 
0 49 -50 0 -51 0 -6 50 -6 50 -44 0 -43 0 -6 44 -6 44 -94 7 -94 7 0 49 
0 49 -51 0 -51 0 -5 44 -5 44 -94 7 -94 7 0 49 0 49 -50 0 -50 0 -6 44 -6 43 -76 7 
c-41 3 -106 6 -144 6 l-68 0 z" fill="rgb(226, 242, 252)"/>
<path d="M2223 5734c-14 12 -23 20 -23 22 0 2 -3 4 -6 4 l-6 0 -1 73 c-1 56 3 79 18 102 
l19 29 c28 -21 61 -47 90 -69 l88 -70 2 -90 c0 -50 4 -93 9 -97 l7 -8 c-52 2 -70 7 -90 20 
-16 11 -52 38 -80 61 -10 8 -19 16 -27 23 z" fill="rgb(207, 81, 153)"/>
<path d="M2420 5630l-7 8 c-5 4 -9 47 -9 97 l-2 90 299 -7 2 -1 -99 -7 c-56 0 -93 -4 -90 -9 
l6 -10 -21 0 c-18 -1 -20 -6 -15 -37 4 -20 12 -45 20 -56 8 -10 12 -28 9 -38 
-4 -14 2 -20 26 -24 l31 -6 -105 0 c-18 0 -33 0 -45 0 z" fill="rgb(174, 69, 166)"/>
<path d="M2570 5630l-31 6 c-24 4 -30 10 -26 24 3 10 -1 28 -9 38 -8 11 -16 36 -20 56 
-5 31 -3 36 15 37 l21 0 22 2 c19 2 27 -8 46 -52 18 -41 22 -63 16 -85 l-8 -31 
-13 3 -13 2 z" fill="rgb(149, 64, 171)"/>
<path d="M2178 5646c1 11 2 23 4 37 l6 77 6 0 c3 0 6 -2 6 -4 0 -2 9 -10 23 -22 l-8 -4 
c-3 0 -5 2 -5 4 0 3 -4 7 -9 11 -6 3 -12 -17 -14 -47 l-9 -52 z" fill="rgb(219, 183, 206)"/>
<path d="M2735 5805c-4 1 -7 2 -10 3 l-22 9 -2 1 45 -1 c23 0 46 -1 69 -1 l-40 -6 
-40 -5 z" fill="rgb(160, 131, 208)"/>
</g>
</svg>
